<svg x="0" y="0" width="300" height="300" version="1.1" xmlns="http://www.w3.org/2000/svg" xmlns:xlink="http://www.w3.org/1999/xlink"><g transform="translate(150,177.5918) scale(0.80957,0.80957)" data-paper-data="{&quot;description&quot;:&quot;Logo for BotML\n==============\n\nThis logo was generated by MarkMaker and is composed of elements designed by others.\n\nThe font is Averia Libre Light Italic designed by Dan Sayers and released under the OFL license via Google Fonts: https://www.google.com/fonts/specimen/Averia Libre. The font includes this copyright statement: Copyright (c) 2011, Dan Sayers (i@iotic.com), with Reserved Font Name 'Averia' and 'Averia Libre'.\n\nMarkMaker uses semantic data from the Princeton University WordNet database http://wordnet.princeton.edu and font descriptions from Google Fonts https://www.google.com/fonts.\n\nThis design is inspired by designs that past users of MarkMaker have liked. As a result, it may be visually similar to past or future designs generated by the system. There is no guarantee that it is unique, original, or suitable in any way for use as a logo.\n\n&quot;}" fill="none" stroke="none" stroke-width="none" stroke-linecap="butt" stroke-linejoin="miter" stroke-miterlimit="10" stroke-dasharray="" stroke-dashoffset="0" font-family="sans-serif" font-weight="normal" font-size="12" text-anchor="start" mix-blend-mode="normal"><path d="M-177.87211,143.79008l0,-355.74422l355.74422,0l0,355.74422z" fill="none" stroke="#030606" stroke-width="0.42"></path><g data-paper-data="{&quot;elementType&quot;:&quot;logo&quot;}" fill="#030606" stroke-width="1"><g data-paper-data="{&quot;elementType&quot;:&quot;text&quot;}"><g transform="translate(-163.24568,-100)" data-paper-data="{&quot;baseline&quot;:68.75,&quot;elementType&quot;:&quot;row&quot;}"><g transform="translate(10.81971,0)" data-paper-data="{&quot;baselineProportion&quot;:0.9915492957746479,&quot;fontSize&quot;:100,&quot;baseline&quot;:68.75,&quot;elementType&quot;:&quot;word&quot;}"><path d="M54.78516,78.22266c0,6.41276 -2.44141,11.5804 -7.32422,15.50293c-4.88281,3.92253 -11.53971,5.88379 -19.9707,5.88379l-2.39258,0.09766l-4.78516,0l-1.17187,-0.04883l-3.51562,0c-7.61719,0 -11.42578,-0.35807 -11.42578,-1.07422c0,-0.71615 0.66732,-2.00195 2.00195,-3.85742c1.33464,-1.85547 2.3112,-4.08529 2.92969,-6.68945c1.36719,-5.89193 3.11686,-15.2181 5.24902,-27.97852c2.13216,-12.76042 3.19824,-19.62891 3.19824,-20.60547c0,-0.97656 -0.29297,-2.09147 -0.87891,-3.34473c-0.58594,-1.25326 -0.87891,-2.1403 -0.87891,-2.66113c0,-1.46484 4.52474,-2.19727 13.57422,-2.19727l4.73633,0c8.00781,0 13.70443,1.13932 17.08984,3.41797c1.92057,1.30208 3.34473,2.89714 4.27246,4.78516c0.92773,1.88802 1.3916,3.74349 1.3916,5.56641l0,2.39258c0,2.79948 -1.04167,5.66406 -3.125,8.59375c-1.23698,1.75781 -3.02734,3.43424 -5.37109,5.0293c-2.34375,1.59505 -3.51562,2.49023 -3.51562,2.68555l3.61328,2.44141c1.59505,1.07422 3.04362,2.53906 4.3457,4.39453c1.30208,1.85547 1.95313,4.41081 1.95313,7.66602z M21.5332,94.48242l5.07813,0c9.24479,0 15.38086,-3.04362 18.4082,-9.13086c1.04167,-2.08333 1.5625,-4.18294 1.5625,-6.29883l0,-2.09961c0,-3.54818 -1.6276,-6.33138 -4.88281,-8.34961c-2.44141,-1.52995 -5.98958,-2.29492 -10.64453,-2.29492l-3.07617,0c-0.97656,0.09766 -1.79036,0.14648 -2.44141,0.14648c-2.57161,0 -4.06901,0.61849 -4.49219,1.85547c-0.03255,0.09766 -0.33366,1.60319 -0.90332,4.5166c-0.56966,2.91341 -0.87077,4.48405 -0.90332,4.71191l-0.29297,1.46484c-0.13021,0.78125 -0.53711,2.89714 -1.2207,6.34766c-0.68359,3.45052 -1.02539,5.77799 -1.02539,6.98242l0,0.83008c0,0.87891 1.61133,1.31836 4.83398,1.31836 M24.21875,61.37695l5.66406,0c8.91927,0 14.76237,-2.76693 17.5293,-8.30078c0.97656,-1.95312 1.46484,-3.97135 1.46484,-6.05469l0,-0.92773c0,-3.09245 -1.11491,-5.49316 -3.34473,-7.20215c-2.22982,-1.70898 -5.52572,-2.56348 -9.8877,-2.56348l-1.80664,0c-4.13411,0 -6.47786,0.55339 -7.03125,1.66016c-0.55339,1.10677 -1.2207,4.00391 -2.00195,8.69141l-2.09961,12.10938c-0.09766,0.45573 -0.14648,0.73242 -0.14648,0.83008l0,0.78125c0,0.65104 0.55339,0.97656 1.66016,0.97656" data-paper-data="{&quot;elementType&quot;:&quot;letter&quot;,&quot;baseline&quot;:68.75,&quot;baselineProportion&quot;:1.0042796005706134,&quot;fontSize&quot;:100}"></path><path transform="translate(5.4,0)" d="M81.49414,100.58594l-1.51367,0c-4.55729,0 -8.30892,-1.6276 -11.25488,-4.88281c-2.94596,-3.25521 -4.41895,-7.51953 -4.41895,-12.79297l0,-1.46484c0,-4.03646 0.7487,-7.91016 2.24609,-11.62109c2.96224,-7.22656 7.42188,-12.33724 13.37891,-15.33203c3.0599,-1.52995 6.05469,-2.29492 8.98438,-2.29492l2.24609,0c4.39453,0 8.08919,1.65202 11.08398,4.95605c2.99479,3.30404 4.49219,7.2998 4.49219,11.9873l0,2.19727c0,3.22266 -0.66732,6.70573 -2.00195,10.44922c-2.76693,7.7474 -7.50326,13.29753 -14.20898,16.65039c-2.86458,1.43229 -5.87565,2.14844 -9.0332,2.14844z M80.9082,95.41016l1.5625,0c1.66016,0 3.48307,-0.55339 5.46875,-1.66016c4.10156,-2.24609 7.22656,-6.62435 9.375,-13.13477c1.00911,-3.02734 1.51367,-5.79427 1.51367,-8.30078l0,-2.68555c0,-3.1901 -0.74056,-6.04655 -2.22168,-8.56934c-1.48112,-2.52279 -3.6377,-3.78418 -6.46973,-3.78418l-1.5625,0c-2.05078,0 -4.05273,0.63477 -6.00586,1.9043c-4.26432,2.76693 -7.22656,7.04753 -8.88672,12.8418c-1.04167,3.64583 -1.5625,6.60807 -1.5625,8.88672l0,2.68555c0,2.92969 0.79753,5.63151 2.39258,8.10547c1.59505,2.47396 3.72721,3.71094 6.39648,3.71094" data-paper-data="{&quot;elementType&quot;:&quot;letter&quot;,&quot;baseline&quot;:47.802734375,&quot;baselineProportion&quot;:0.987891019172553,&quot;fontSize&quot;:100}"></path><path transform="translate(10.8,0)" d="M130.61523,92.57813l4.54102,-0.58594c1.36719,0 2.05078,0.69173 2.05078,2.0752c0,1.38346 -0.92773,2.57975 -2.7832,3.58887c-2.83203,1.52995 -5.58268,2.29492 -8.25195,2.29492l-0.87891,0c-2.24609,0 -4.03646,-0.88704 -5.37109,-2.66113c-1.33464,-1.77409 -2.00195,-4.09342 -2.00195,-6.95801c0,-2.86458 0.65104,-7.63346 1.95313,-14.30664c1.30208,-6.67318 1.95313,-10.99447 1.95313,-12.96387c0,-1.9694 -0.55339,-3.31217 -1.66016,-4.02832c-1.79036,-1.17187 -2.68555,-2.01823 -2.68555,-2.53906c0,-1.13932 1.00911,-2.13216 3.02734,-2.97852c2.01823,-0.84635 3.32845,-1.66016 3.93066,-2.44141c0.60221,-0.78125 1.29395,-2.43327 2.0752,-4.95605c0.78125,-2.52279 1.36719,-4.14225 1.75781,-4.8584c1.00911,-1.79036 2.32747,-2.68555 3.95508,-2.68555c1.46484,0 2.19727,0.92773 2.19727,2.7832l-0.09766,0.92773l-0.24414,1.9043c-0.22786,2.18099 -0.3418,3.75163 -0.3418,4.71191c0,0.96029 0.26855,1.7334 0.80566,2.31934c0.53711,0.58594 1.91243,1.20443 4.12598,1.85547c2.21354,0.65104 3.32031,1.52995 3.32031,2.63672c0,1.10677 -1.5625,1.96126 -4.6875,2.56348c-3.125,0.60221 -5.07812,1.74967 -5.85937,3.44238c-1.04167,2.27865 -2.18913,6.20931 -3.44238,11.79199c-1.25326,5.58268 -1.87988,9.9528 -1.87988,13.11035c0,3.97135 1.4974,5.95703 4.49219,5.95703z" data-paper-data="{&quot;elementType&quot;:&quot;letter&quot;,&quot;baseline&quot;:61.42578125,&quot;baselineProportion&quot;:1.0007955449482895,&quot;fontSize&quot;:100}"></path><path transform="translate(16.2,0)" d="M160.40039,36.2793c0,0 0,-0.01628 0,-0.04883c0,-2.24609 1.74154,-3.36914 5.22461,-3.36914c3.71094,0 6.56738,2.09961 8.56934,6.29883c2.00195,4.19922 5.08626,13.70443 9.25293,28.51563c1.20443,4.23177 1.95313,6.72201 2.24609,7.4707l0.92773,1.80664c0.7487,0 5.0293,-5.69661 12.8418,-17.08984c1.00911,-1.4974 2.03451,-3.01107 3.07617,-4.54102l3.07617,-4.63867c3.74349,-5.56641 6.21745,-9.14714 7.42188,-10.74219l1.46484,-1.9043c2.70182,-3.15755 5.8431,-4.73633 9.42383,-4.73633c2.21354,0 3.32031,0.73242 3.32031,2.19727c0,0.13021 -0.43945,1.1556 -1.31836,3.07617c-0.87891,1.92057 -1.64388,4.45964 -2.29492,7.61719l-0.48828,2.73438c-0.26042,1.52995 -0.71615,4.67122 -1.36719,9.42383c-0.65104,4.7526 -1.58691,10.79102 -2.80762,18.11523c-1.2207,7.32422 -1.83105,11.57227 -1.83105,12.74414c0,1.17188 0.29297,2.45768 0.87891,3.85742c0.58594,1.39974 0.87891,2.65299 0.87891,3.75977c0,1.33464 -1.2207,2.00195 -3.66211,2.00195c-2.44141,0 -4.38639,-0.5127 -5.83496,-1.53809c-1.44857,-1.02539 -2.17285,-2.38444 -2.17285,-4.07715c0,-0.61849 0.3418,-1.83105 1.02539,-3.6377c0.68359,-1.80664 1.25326,-3.62956 1.70898,-5.46875c0.45573,-1.83919 1.30208,-7.86947 2.53906,-18.09082c1.23698,-10.22135 1.85547,-15.68197 1.85547,-16.38184c0,-0.69987 -0.13021,-1.0498 -0.39062,-1.0498c-0.8138,0 -4.7526,5.8431 -11.81641,17.5293c-7.0638,11.6862 -11.54785,18.76628 -13.45215,21.24023c-1.9043,2.47396 -3.81673,3.71094 -5.7373,3.71094c-0.97656,0 -1.87174,-1.00911 -2.68555,-3.02734l-0.78125,-2.49023c-0.35807,-1.20443 -0.83822,-2.99479 -1.44043,-5.37109c-0.60221,-2.3763 -1.26139,-4.86654 -1.97754,-7.4707l-1.9043,-7.95898c-1.07422,-4.39453 -2.09961,-8.19499 -3.07617,-11.40137c-0.97656,-3.20638 -2.05078,-4.80957 -3.22266,-4.80957c-0.52083,0 -2.01823,5.49316 -4.49219,16.47949c-2.47396,10.98633 -3.81673,17.28516 -4.02832,18.89648c-0.21159,1.61133 -0.36621,3.51563 -0.46387,5.71289c-0.09766,2.19727 -0.25228,3.67025 -0.46387,4.41895c-0.21159,0.7487 -0.88704,1.55436 -2.02637,2.41699c-1.13932,0.86263 -2.73437,1.29395 -4.78516,1.29395c-2.05078,0 -3.07617,-0.89518 -3.07617,-2.68555l0.73242,-1.85547l2.49023,-3.80859c0.65104,-1.30208 1.36719,-3.75977 2.14844,-7.37305c4.65495,-21.84245 6.98242,-35.8724 6.98242,-42.08984l-0.29297,-2.05078l-0.19531,-1.61133z" data-paper-data="{&quot;elementType&quot;:&quot;letter&quot;,&quot;baseline&quot;:67.138671875,&quot;baselineProportion&quot;:1.0177646188008882,&quot;fontSize&quot;:100}"></path><path transform="translate(21.6,0)" d="M269.43359,100.29297l-5.0293,0l-1.26953,-0.04883l-6.49414,-0.09766c-9.11458,0 -15.27507,-0.13835 -18.48145,-0.41504c-3.20638,-0.27669 -4.80957,-1.14746 -4.80957,-2.6123c0,-0.91146 0.92773,-2.62044 2.7832,-5.12695c1.6276,-2.14844 4.00391,-12.82552 7.12891,-32.03125c1.82292,-10.97005 2.73438,-16.97591 2.73438,-18.01758c0,-0.97656 -0.35807,-2.16471 -1.07422,-3.56445c-0.71615,-1.36719 -1.07422,-2.39258 -1.07422,-3.07617c0,-0.68359 0.56966,-1.46484 1.70898,-2.34375c1.13932,-0.87891 2.79948,-1.31836 4.98047,-1.31836l1.26953,0c4.98047,0 7.4707,1.28581 7.4707,3.85742c0,0.8138 -0.68359,2.06706 -2.05078,3.75977c-1.36719,1.69271 -2.36816,3.80859 -3.00293,6.34766c-0.63477,2.53906 -2.09147,10.27832 -4.37012,23.21777c-2.27865,12.93945 -3.41797,19.84863 -3.41797,20.72754c0,2.24609 0.87891,3.69466 2.63672,4.3457c1.23698,0.45573 3.92253,0.68359 8.05664,0.68359c4.13411,0 7.38932,-0.4069 9.76563,-1.2207c2.3763,-0.8138 4.46777,-1.71712 6.27441,-2.70996c1.80664,-0.99284 3.34473,-1.48926 4.61426,-1.48926c0.84635,0 1.26953,0.63477 1.26953,1.9043c0,3.125 -0.50456,5.28971 -1.51367,6.49414c-1.52995,1.82292 -4.23177,2.73438 -8.10547,2.73438z" data-paper-data="{&quot;elementType&quot;:&quot;letter&quot;,&quot;baseline&quot;:68.359375,&quot;baselineProportion&quot;:0.9957325746799431,&quot;fontSize&quot;:100}"></path></g></g></g></g></g></svg>